<svg xmlns="http://www.w3.org/2000/svg" viewBox="0 0 512 512" width="512" height="512">
  <defs>
    <linearGradient id="bg2" x1="0" y1="0" x2="1" y2="1">
      <stop offset="0" stop-color="#1d2230"/><stop offset="1" stop-color="#0e1118"/>
    </linearGradient>
    <radialGradient id="dome" cx="0.5" cy="0.32" r="0.78">
      <stop offset="0" stop-color="#7fe1ff" stop-opacity=".55"/>
      <stop offset="1" stop-color="#7fe1ff" stop-opacity=".10"/>
    </radialGradient>
    <clipPath id="domeClip"><path d="M86 330a170 188 0 0 1 340 0z"/></clipPath>
    <clipPath id="tankClip"><path d="M180 224c30 0 50 22 50 54v36h-100v-36c0-32 20-54 50-54z"/></clipPath>
  </defs>
  <rect width="512" height="512" rx="112" fill="url(#bg2)"/>

  <!-- centered heart (original size), above the dome -->
  <path d="M256 124 C256 124 239 111 239 101 C239 94 245 91 249 94 C252 96 254 99 256 102
           C258 99 260 96 263 94 C267 91 273 94 273 101 C273 111 256 124 256 124 Z" fill="#ff7b91"/>

  <!-- protective dome -->
  <path d="M86 330a170 188 0 0 1 340 0z" fill="url(#dome)" stroke="#aef0ff" stroke-width="8"/>
  <ellipse cx="256" cy="330" rx="170" ry="22" fill="#aef0ff" opacity=".25"/>

  <!-- healer green (center) -->
  <path d="M256 198c34 0 58 26 58 64v52h-116v-52c0-38 24-64 58-64z" fill="#5ec46b"/>
  <!-- witch hat resting right on the crown -->
  <g clip-path="url(#domeClip)">
    <path d="M256 152 C266 170 250 186 244 196 l24 0 C262 186 270 170 256 152 Z" fill="#3a2a63"/>
    <path d="M226 198 q30 -12 60 0 q-30 11 -60 0 z" fill="#2c1f4d"/>
    <rect x="242" y="186" width="28" height="8" rx="3" fill="#ffd764"/>
  </g>
  <circle cx="240" cy="252" r="8" fill="#10210f"/><circle cx="272" cy="252" r="8" fill="#10210f"/>
  <path d="M242 272c6 8 22 8 28 0" fill="none" stroke="#10210f" stroke-width="6" stroke-linecap="round"/>

  <!-- tank blue (left) -->
  <path d="M180 224c30 0 50 22 50 54v36h-100v-36c0-32 20-54 50-54z" fill="#4f7bf0"/>
  <!-- shield at the tank's bottom-right, clear of the mouth -->
  <g clip-path="url(#tankClip)">
    <path d="M206 278 l15 5 v10 c0 11 -15 16 -15 16 c0 0 -15 -5 -15 -16 v-10 z" fill="#d7e3ff" stroke="#ffffff" stroke-width="3"/>
    <path d="M206 283 v20 M196 288 h20" stroke="#4f7bf0" stroke-width="3.5"/>
  </g>
  <circle cx="166" cy="250" r="7" fill="#0c1530"/><circle cx="194" cy="250" r="7" fill="#0c1530"/>
  <path d="M168 270c6 7 20 7 26 0" fill="none" stroke="#0c1530" stroke-width="6" stroke-linecap="round"/>

  <!-- dps red (right) -->
  <path d="M332 224c30 0 50 22 50 54v36h-100v-36c0-32 20-54 50-54z" fill="#ef5d52"/>
  <circle cx="318" cy="262" r="7" fill="#3a0f0c"/><circle cx="346" cy="262" r="7" fill="#3a0f0c"/>
  <path d="M320 280c6 9 20 9 26 0" fill="none" stroke="#3a0f0c" stroke-width="6" stroke-linecap="round"/>
  <!-- upright greatsword -->
  <g>
    <rect x="384" y="214" width="15" height="84" rx="5" fill="#eef2f9" stroke="#b9c3d6" stroke-width="2"/>
    <polygon points="384,214 399,214 391.5,198" fill="#eef2f9"/>
    <rect x="371" y="298" width="42" height="11" rx="4" fill="#ffd764"/>
    <rect x="385" y="309" width="13" height="20" rx="4" fill="#9a6a32"/>
    <circle cx="391.5" cy="332" r="7" fill="#ffd764"/>
  </g>
</svg>
