<svg xmlns="http://www.w3.org/2000/svg" viewBox="0 0 512 512" width="512" height="512">
  <defs>
    <linearGradient id="bg2" x1="0" y1="0" x2="1" y2="1">
      <stop offset="0" stop-color="#1d2230"/>
      <stop offset="1" stop-color="#0e1118"/>
    </linearGradient>
    <radialGradient id="dome" cx="0.5" cy="0.35" r="0.75">
      <stop offset="0" stop-color="#7fe1ff" stop-opacity=".55"/>
      <stop offset="1" stop-color="#7fe1ff" stop-opacity=".10"/>
    </radialGradient>
  </defs>
  <rect width="512" height="512" rx="112" fill="url(#bg2)"/>
  <!-- protective dome -->
  <path d="M86 330a170 170 0 0 1 340 0z" fill="url(#dome)" stroke="#aef0ff" stroke-width="8"/>
  <ellipse cx="256" cy="330" rx="170" ry="22" fill="#aef0ff" opacity=".25"/>
  <!-- three blob frens (tank / healer / dps) -->
  <g stroke="#0e1118" stroke-width="0">
    <!-- healer green (back center) -->
    <path d="M256 196c34 0 58 26 58 64v54h-116v-54c0-38 24-64 58-64z" fill="#5ec46b"/>
    <circle cx="240" cy="246" r="8" fill="#10210f"/><circle cx="272" cy="246" r="8" fill="#10210f"/>
    <path d="M242 266c6 8 22 8 28 0" fill="none" stroke="#10210f" stroke-width="6" stroke-linecap="round"/>
    <!-- tank blue (left) -->
    <path d="M180 224c30 0 50 22 50 54v36h-100v-36c0-32 20-54 50-54z" fill="#4f7bf0"/>
    <circle cx="166" cy="266" r="7" fill="#0c1530"/><circle cx="194" cy="266" r="7" fill="#0c1530"/>
    <path d="M168 286c6 7 20 7 26 0" fill="none" stroke="#0c1530" stroke-width="6" stroke-linecap="round"/>
    <!-- dps red (right) -->
    <path d="M332 224c30 0 50 22 50 54v36h-100v-36c0-32 20-54 50-54z" fill="#ef5d52"/>
    <circle cx="318" cy="266" r="7" fill="#3a0f0c"/><circle cx="346" cy="266" r="7" fill="#3a0f0c"/>
    <path d="M320 284c6 9 20 9 26 0" fill="none" stroke="#3a0f0c" stroke-width="6" stroke-linecap="round"/>
  </g>
  <!-- little hearts -->
  <path d="M250 150c0-10 16-12 16 0 0-12 16-10 16 0 0 10-16 18-16 18s-16-8-16-18z" fill="#ff7b91"/>
</svg>
